<?xml version="1.0" encoding="utf-8"?>
<!-- Generator: Adobe Illustrator 24.1.1, SVG Export Plug-In . SVG Version: 6.00 Build 0)  -->
<svg version="1.1" id="Capa_1" xmlns="http://www.w3.org/2000/svg" xmlns:xlink="http://www.w3.org/1999/xlink" x="0px" y="0px"
	 viewBox="0 0 512 512" style="enable-background:new 0 0 512 512;" xml:space="preserve">
<style type="text/css">
	.st0{fill:#279406;}
</style>
<g>
	<g>
		<path class="st0" d="M357.8,74.1C330.3,47,294.1,32,256,32c-79.4,0-144,64.6-144,144v224c0,8.8,7.2,16,16,16h32
			c8.8,0,16-7.2,16-16s-7.2-16-16-16h-16V176c0-61.8,50.2-112,112-112c29.7,0,57.9,11.6,79.2,32.7c21.2,21.5,32.8,49.6,32.8,79.3
			v208h-16c-8.8,0-16,7.2-16,16s7.2,16,16,16h32c8.8,0,16-7.2,16-16V176C400,137.9,385.1,101.7,357.8,74.1z"/>
	</g>
</g>
<g>
	<g>
		<path class="st0" d="M288,384h-64c-8.8,0-16,7.2-16,16s7.2,16,16,16h64c8.8,0,16-7.2,16-16S296.8,384,288,384z"/>
	</g>
</g>
<g>
	<g>
		<path class="st0" d="M224,384c-8.8,0-16,7.2-16,16v64c0,8.8-7.2,16-16,16s-16-7.2-16-16v-64c0-8.8-7.2-16-16-16s-16,7.2-16,16v64
			c0,26.5,21.5,48,48,48s48-21.5,48-48v-64C240,391.2,232.8,384,224,384z"/>
	</g>
</g>
<g>
	<g>
		<path class="st0" d="M352,384c-8.8,0-16,7.2-16,16v64c0,8.8-7.2,16-16,16s-16-7.2-16-16v-64c0-8.8-7.2-16-16-16s-16,7.2-16,16v64
			c0,26.5,21.5,48,48,48s48-21.5,48-48v-64C368,391.2,360.8,384,352,384z"/>
	</g>
</g>
<g>
	<g>
		<path class="st0" d="M64,160c-8.8,0-16,7.2-16,16v160c0,8.8,7.2,16,16,16s16-7.2,16-16V176C80,167.2,72.8,160,64,160z"/>
	</g>
</g>
<g>
	<g>
		<path class="st0" d="M448,160c-8.8,0-16,7.2-16,16v160c0,8.8,7.2,16,16,16s16-7.2,16-16V176C464,167.2,456.8,160,448,160z"/>
	</g>
</g>
<g>
	<g>
		<path class="st0" d="M384,160H128c-8.8,0-16,7.2-16,16s7.2,16,16,16h256c8.8,0,16-7.2,16-16S392.8,160,384,160z"/>
	</g>
</g>
<g>
	<g>
		<path class="st0" d="M183.7,72.6L141.5,7.4c-4.8-7.5-14.7-9.6-22.1-4.8c-7.4,4.8-9.6,14.7-4.8,22.1L156.8,90
			c3,4.7,8.2,7.3,13.4,7.3c3,0,6-0.8,8.7-2.6C186.3,89.9,188.5,80,183.7,72.6z"/>
	</g>
</g>
<g>
	<g>
		<path class="st0" d="M392.1,2.2c-7.5-4.4-17.4-2-21.9,5.7l-39.7,67.5c-4.5,7.6-1.9,17.4,5.7,21.9c2.5,1.5,5.3,2.2,8.1,2.2
			c5.5,0,10.8-2.8,13.8-7.9l39.7-67.5C402.3,16.5,399.7,6.7,392.1,2.2z"/>
	</g>
</g>
<g>
	<g>
		<path class="st0" d="M288.7,96h-0.3c-8.9,0-15.8,7.2-15.8,16s7.3,16,16.2,16s16-7.2,16-16S297.5,96,288.7,96z"/>
	</g>
</g>
<g>
	<g>
		<path class="st0" d="M224.7,96h-0.3c-8.8,0-15.8,7.2-15.8,16s7.3,16,16.2,16s16-7.2,16-16S233.5,96,224.7,96z"/>
	</g>
</g>
</svg>
