<?xml version="1.0" encoding="utf-8"?>
<!-- Generator: Adobe Illustrator 24.1.1, SVG Export Plug-In . SVG Version: 6.00 Build 0)  -->
<svg version="1.1" id="Layer_1" xmlns="http://www.w3.org/2000/svg" xmlns:xlink="http://www.w3.org/1999/xlink" x="0px" y="0px"
	 viewBox="0 0 887.1 887.1" style="enable-background:new 0 0 887.1 887.1;" xml:space="preserve">
<style type="text/css">
	.st0{fill:#FFDA1A;}
	.st1{fill:#EA0303;}
	.st2{fill:#154692;}
	.st3{fill:none;stroke:#154692;stroke-miterlimit:10;}
</style>
<g id="بک_زرد_لوگو">
	<path class="st0" d="M444.6,17.8c-33.7,38.7-130.8,168-357.1,99.8l-57,132c0,0,160,60.5,77,277c-110.5,253,118,263,118,263
		s148.8,6,220.1,85v1c0.1-0.2,0.3-0.3,0.4-0.5c0.1,0.2,0.3,0.3,0.4,0.5v-1c71.4-79,220.2-85,220.2-85s228.5-10,118-263
		c-83-216.5,77-277,77-277l-57-132c-226.4,68.2-323.5-61-357.1-99.8l-1.4-1.6L444.6,17.8z"/>
	<path class="st0" d="M446,16.2"/>
</g>
<g id="مشعل">
	<path class="st1" d="M456.8,293.6c0,0-4.6,19.7,23.5,53.6c45.2,43.1,6.6,73,6.6,73h-83.7c0,0-29.6-22.5,2.6-68.4
		c0,0,6.3,26.9,9.7,26s-4.8-31.4,17.2-59c0,0-2.6,27.7,9.1,35.5C439.5,326.6,445.6,307.5,456.8,293.6z"/>
</g>
<g id="خط_مشعل">
	<g>
		<g>
			<path class="st2" d="M491.9,443.4h-90.8c-5.2,0-9.5-4.3-9.5-9.5s4.3-9.5,9.5-9.5h90.8c5.2,0,9.5,4.3,9.5,9.5
				S497.1,443.4,491.9,443.4z"/>
		</g>
	</g>
</g>
<g id="پایه_مشعل">
	<g>
		<g>
			<path class="st2" d="M476.2,473.6c-1.9,1.2-3.8,2.4-5.2,3.6c-12.6,10.9-21.4,26.3-24.5,42.6c0.4-2-1.4-5.8-1.9-7.8
				c-0.5-2.1-1.1-4.1-1.8-6.1c-1.3-3.8-3-7.5-5-11c-4-6.8-9.3-13-15.2-18.3c-3.3-3-7.1-3.6-10.5-5.9c-2.5-1.8-4.1-4.7-4.1-7.8
				c0-5.2,4.3-9.5,9.5-9.5h58c5.2,0,9.5,4.3,9.5,9.5C485,467.8,480.5,470.8,476.2,473.6z"/>
		</g>
	</g>
</g>
<g id="پایه_زیرین">
	<path class="st3" d="M445.8,550.6"/>
	<path class="st2" d="M655.4,570.4c-1.6-13.3-6.4-28.7-20.1-33.8c-11.3-4.2-24,0-32.7,7.7s-15.5,20.1-6.9,30.6
		c5.1,6.2,18.4,14.9,26.9,10.9c-45,21.3-51.6-36.4-21.8-57c-0.2-3.4-0.6-6.7-1.2-10c-5.6-29.2-31-52-60.2-55.6
		c-29.8-3.7-57.2,7.6-74.4,32.3c-9.9,14.1-16.2,30.4-17.9,47.5c0,0.4-0.6,3.6-0.6,3.6s-0.5-3-0.5-3.3c-1.6-17.2-8-33.6-17.9-47.7
		c-17.3-24.7-44.7-36-74.4-32.3c-29.2,3.6-54.6,26.4-60.2,55.6c-0.6,3.3-1,6.6-1.2,10c29.9,20.6,23.2,78.3-21.8,57
		c8.5,4,21.8-4.7,26.9-10.9c8.6-10.5,1.9-22.8-6.9-30.6c-8.7-7.7-21.4-11.9-32.7-7.7c-13.7,5.1-18.5,20.5-20.1,33.8
		c-2.3,18.6,1,36.2,18.6,46.1c14.2,8,33.1,6.4,47.4-0.7c6.7-3.4,11.9-8.1,16.3-14.1c2.4-3.3,4.5-6.9,6-10.7
		c0.9-2.4,4.2-10.8,2.4-13.1c12,15.6,27.7,22.2,47.3,18.6c0,0,13.8,4.4,9.9,20.1c-3.9,15.7,15.5-18.9-1.4-31
		c0,0,12.3-48.2-23.5-40.9c0,0,9,21.1-14,21.8c-17.2,0.5-22-21.1-22.7-34.4c-0.6-10.9,4.5-21.4,12.8-28.5
		c7.3-6.2,16.7-9.2,26.2-10.2c37.3-4.1,52.1,41.4,48.3,54.1c-0.7,2.4-2.2,4.8-3.1,7.1c-1.3,3.4-2.4,6.8-3.2,10.4
		c-2,8.2-3,16.9-1.4,25.3c1.7,9.4,6.7,17.6,14.4,23.2c8.7,6.3,19.3,9.5,29.9,9.3c6.9-0.1,13.7-1.8,20-5c4.6-2.4,9-5.2,12.6-9
		c6.6-7.1,9.6-16.5,9.8-26.1c0.2-8.6-1.6-17.2-4.4-25.3c-1.2-3.4-2.5-6.7-4.1-10c-3.7-12.8,11.1-58.2,48.3-54.1
		c9.4,1,18.8,4.1,26.2,10.2c8.4,7.1,13.4,17.6,12.8,28.5c-0.7,13.4-5.4,34.9-22.7,34.4c-23-0.7-14-21.8-14-21.8
		c-35.7-7.3-23.5,40.9-23.5,40.9c-16.9,12.1,2.6,46.6-1.4,31c-3.9-15.7,9.9-20.1,9.9-20.1c19.7,3.6,35.3-2.9,47.3-18.6
		c-1.8,2.3,1.5,10.7,2.4,13.1c1.5,3.8,3.6,7.4,6,10.7c4.4,6,9.6,10.7,16.3,14.1c14.2,7.2,33.1,8.7,47.4,0.7
		C654.4,606.7,657.7,589,655.4,570.4z M452.5,598.6c-12.8,3.1-26.9-4.5-26.9-18.8c0-10.7,8.7-19.4,19.4-19.4h3
		c10.7,0,19.4,8.7,19.4,19.4C467.4,588.7,461.1,596.6,452.5,598.6z"/>
</g>
<g id="موسسه">
	<g>
		<path d="M192.7,476.9c0.1-0.1,0.2-0.2,0.3-0.2c0.1,0,0.3,0.1,0.4,0.2l3.8,3.4c0.3,0.2,0.3,0.5,0.1,0.8l-3.4,3.9
			c-0.3,0.3-0.6,0.3-1,0l-3.6-3.2c-0.3-0.3-0.3-0.6,0-0.9L192.7,476.9z M209.2,461.9c6.8-0.4,11.6,1.2,14.5,4.8
			c2.1,2.6,3.3,6.4,3.6,11.4c0.2,4.4-0.5,8-2.1,10.7c-1.9,3.2-4.9,4.9-9.1,5.1c-2.5,0.1-5-0.1-7.7-0.7c-3.4-0.7-5.1-1.8-5.2-3.2
			c-0.1-1.2,0.9-1.8,2.9-1.9c0.5,0,1.2,0,2.2,0.2s1.8,0.2,2.3,0.2c3.7-0.2,5.3-3.8,5-10.9c-0.4-7.3-1.9-10.8-4.6-10.7
			c-0.6,0-1.8,0.9-3.6,2.6c-1.7,1.6-2.9,2.8-3.4,3.7l-9-4c-0.6-0.3-0.9-0.5-0.9-0.6s0.2-0.5,0.7-1c1.1-1.1,2.8-2.3,5.2-3.4
			C203.1,462.9,206.2,462.1,209.2,461.9z"/>
		<path d="M200,447.6c1.6,0.1,3.6,0.4,6,1c2.5,0.6,4.4,1.3,5.7,2c1.5,0.8,2.3,1.6,2.3,2.3s-1,1.3-3,1.7c-2.8,0.6-12.2,1.7-28.3,3.2
			l-8.5-8.6c-0.5-0.5-0.8-0.9-0.8-1.1c0-0.1,0.3-0.3,0.8-0.3c3.6-0.6,7.9-0.9,12.9-0.8C188.6,447,192.9,447.2,200,447.6z"/>
		<path d="M204.2,421.4c8.7,1.2,12.5,5.9,11.4,14c-1,6.9-4.4,10-10.4,9.2c-2.4-0.3-4.5-1.1-6.4-2.3c-0.8-0.5-1.1-1-1-1.7
			s0.7-1.1,1.7-1.2c1.7-0.2,2.9-0.7,3.4-1.4c0.6-0.8,1.1-2.7,1.5-5.5c0.5-3.5,0.3-5.3-0.6-5.5c-0.4,0-0.8,0.2-1.5,0.6
			c-2.3,1.7-5,4.7-8.2,9.1l-8.4-5.4c-0.5-0.3-0.7-0.6-0.7-0.8c0-0.1,0.1-0.4,0.3-0.7c1.2-1.8,3.1-3.6,5.7-5.2
			C195.2,421.9,199.6,420.8,204.2,421.4z"/>
		<path d="M221.2,407.1l-0.7,2.8c-1.5,6.6-5.7,9.1-12.6,7.5c-2.9-0.7-6.8-1.5-11.6-2.3c-5.1-0.9-8.5-1.5-10.2-1.6
			c-0.8-0.1-1.4-0.3-1.6-0.8l-3.6-8.9c-0.2-0.6-0.3-1-0.3-1.2c0.1-0.2,0.3-0.3,0.7-0.2l23.2,5.3c2.6,0.6,4.1-0.2,4.6-2.5l0.2-0.8
			L221.2,407.1z"/>
		<path d="M211,392.3c4.8,1.4,8,3.1,9.6,5.1c1.8,2.3,2.1,5.5,0.8,9.8l-0.6,2l-11.8-3.5l1.7-5.9c0.3-1,0.2-1.6-0.4-1.8
			c-0.3-0.1-0.7,0-1.1,0.1c-1.7,0.7-3.6,1.6-5.6,2.9c-0.3,0.2-0.6,0.1-0.9-0.3l-5.6-6.9c-0.3-0.4-0.4-0.6-0.4-0.7
			c0-0.2,0.3-0.3,0.7-0.5C201.6,391,206.1,390.8,211,392.3z M231.6,400.5c0.3-0.2,0.5-0.2,0.7,0.2l2.4,4.5c0.2,0.3,0.1,0.6-0.2,0.8
			l-4.5,2.5c-0.4,0.2-0.7,0.1-0.9-0.3l-2.3-4.2c-0.2-0.4-0.1-0.6,0.3-0.9L231.6,400.5z"/>
		<path d="M193.3,355.6c1.3,0.5,2.2,2.4,2.6,5.7c0.4,3.4,0.1,6.6-1.1,9.5c-0.3,0.8-1,1.9-1.9,3.3c-1,1.4-1.6,2.5-1.9,3.3
			c-0.2,0.5,0.1,1.1,0.7,1.9s0.9,1.4,0.8,1.8c-0.3,0.8-1.1,0.9-2.3,0.5c-0.8-0.3-2-1.4-3.4-3.2c-1.6-2-2.2-3.5-1.8-4.4
			c-0.2,0.5-0.3,0.8-0.2,0.8c0.2,0.1,1-1,2.4-3.3c2.1-3.2,3.4-5.5,3.8-6.7c0.4-1.1,0.7-2.7,0.7-4.8c0.1-2.1,0.2-3.4,0.4-3.9
			C192.2,355.5,192.7,355.3,193.3,355.6z M197.9,366.2c2.6,1,6.2,2.5,10.9,4.4c5.8,2.4,9.2,3.9,10.3,4.5c1.2,0.6,2.7,1.7,4.4,3.2
			c1.6,1.4,2.9,2.7,3.8,3.9c1.1,1.4,1.6,2.4,1.4,2.9c-0.2,0.6-1.3,0.8-3.3,0.6c-2.8-0.3-12.1-3.3-27.8-9.1l-1.1-9.4
			c-0.1-0.5,0-0.9,0-1.1C196.8,365.9,197.2,366,197.9,366.2z"/>
		<path d="M229.4,325.6c0.3-0.1,0.5,0,0.5,0.4l1,4.4c0.1,0.3,0,0.5-0.4,0.6l-4.1,1l0.9,4.1c0.1,0.3,0,0.5-0.4,0.6l-4.4,1.1
			c-0.3,0.1-0.6-0.1-0.7-0.5l-1-4.1c-0.1-0.4,0.1-0.6,0.4-0.7l4.1-1l-1-3.9c-0.1-0.4,0.1-0.6,0.5-0.7L229.4,325.6z M261.1,325.5
			l-0.9,1.5c-1.6,2.5-4.1,3.6-7.5,3.2c1.2,5.9-0.5,12.5-5,19.8c-2.5,4-5.2,6.5-8,7.4c-3.1,1-6.6,0.3-10.5-2.2c-1.6-1-3-2.2-4.4-3.7
			c-1.6-1.8-2.2-3.1-1.6-4c0.6-1,1.7-1,3.2-0.1c2,1.1,3.7,1.6,5,1.3c2.4-0.5,5-2.9,7.7-7.2c2.9-4.6,4.6-8.7,5.2-12.3
			c0.4-2.4,0.3-4.7-0.3-7c-0.5-1.9-0.7-3-0.5-3.3c0.5-0.8,1.3-0.9,2.3-0.3c0.3,0.2,0.8,0.7,1.4,1.4c0.6,0.7,1,1.3,1.1,1.7
			c0.6-0.1,1.2-0.5,1.7-1.4l0.9-1.4L261.1,325.5z"/>
		<path d="M242.6,294.6c0.3,0,0.5,0.1,0.6,0.5l0.5,5.1c0,0.4-0.1,0.6-0.5,0.6l-5.1,0.5c-0.4,0.1-0.6-0.2-0.7-0.6l-0.5-4.8
			c0-0.4,0.2-0.7,0.6-0.7L242.6,294.6z M273,312.8l-1.4,1.7c-0.9,1.1-2.2,1.9-4,2.6c-1.4,0.5-2.6,0.7-3.6,0.7c0,3.9-0.8,6.9-2.6,9.1
			l-1.2,1.4l-9.4-7.8l2.5-3c-0.8,0.1-2-0.5-3.4-1.7c-1.8-1.5-3-3.6-3.8-6.4c-0.9-3.3-0.5-5.9,1.1-7.8c1.3-1.6,3.1-2.2,5.4-1.8
			c1.7,0.3,3.4,1.1,4.8,2.3c2.3,1.9,3.6,3.8,4,5.7l2.2-2.7L273,312.8z M256.5,307.1c-0.5-0.4-1.1-0.4-2-0.1
			c-0.8,0.3-1.4,0.7-1.8,1.2c-0.5,0.6-0.8,1.2-1,2c-0.2,1-0.1,1.6,0.4,2.1c0.4,0.3,1.1,0.4,2.1,0.1s1.7-0.6,2-1
			c0.4-0.5,0.7-1.3,0.8-2.1C257.2,308.2,257.1,307.5,256.5,307.1z"/>
		<path d="M252.3,282.1c0.4,0,0.6,0.2,0.6,0.5l0.1,5.1c0,0.4-0.2,0.6-0.5,0.6l-5.1,0.2c-0.4,0-0.6-0.2-0.7-0.7l-0.2-4.8
			c0-0.4,0.2-0.6,0.6-0.7L252.3,282.1z M270.5,295c3.6,3.4,5.7,6.4,6.2,8.8c0.6,2.9-0.6,5.9-3.7,9.1l-1.4,1.5l-8.9-8.4l4.2-4.4
			c0.7-0.8,0.9-1.4,0.4-1.8c-0.2-0.2-0.6-0.3-1.1-0.4c-1.8-0.2-3.9-0.2-6.3,0c-0.4,0-0.6-0.2-0.7-0.7l-1.9-8.7
			c-0.1-0.5-0.1-0.7,0-0.8c0.1-0.1,0.4-0.2,0.9-0.1C262.7,289.5,266.8,291.5,270.5,295z"/>
		<path d="M323.2,270l-1.4,1.1c-2.4,1.8-5.1,1.9-8.2,0.3c-0.9,6-4.8,11.5-11.7,16.7c-3.8,2.9-7.2,4.2-10.1,4.1
			c-3.3-0.1-6.3-2.1-9.1-5.7c-1.1-1.5-2-3.1-2.8-5c-0.9-2.2-1-3.7-0.1-4.3c0.9-0.7,1.9-0.4,3.1,1c1.5,1.8,2.9,2.8,4.3,3
			c2.4,0.4,5.7-1,9.7-4c4.3-3.3,7.4-6.5,9.2-9.7c1.2-2.1,1.9-4.3,2.2-6.7c0.2-1.9,0.4-3,0.7-3.2c0.8-0.6,1.5-0.4,2.2,0.6
			c0.2,0.3,0.5,0.9,0.8,1.8s0.5,1.5,0.5,2c0.6,0.1,1.3-0.1,2.1-0.7l1.4-1L323.2,270z M293.6,258.9c0.3,0,0.4,0.2,0.4,0.5l-0.6,4.5
			c0,0.3-0.2,0.5-0.6,0.4l-4.2-0.5l-0.6,4.1c0,0.3-0.2,0.4-0.6,0.4l-4.5-0.5c-0.4,0-0.5-0.3-0.4-0.7l0.5-4.2
			c0.1-0.4,0.3-0.5,0.7-0.5l4.2,0.5l0.5-4c0.1-0.4,0.3-0.6,0.7-0.5L293.6,258.9z"/>
		<path d="M342,260.7l-2.2,1.2c-4.3,2.4-7.7,2.6-10.1,0.7c0,1.9-0.5,3.4-1.3,4.6c-0.8,1.1-2,2.1-3.7,3.1l-3.5,1.9l-6-10.7l3.1-1.7
			c2.3-1.3,3.5-2.2,3.7-2.8c-1.9-0.9-3.5-1.3-4.8-1.5c-0.1,0-0.3,0-0.6,0h-1.3c-0.3,0-0.7-0.3-1-0.9c-0.8-1.5-0.8-3.3-0.1-5.4
			c0.9-2.4,2.6-4.3,5.1-5.7c1.8-1,3.7-1.5,5.6-1.4c2.2,0.1,3.8,1,4.8,2.8c0.6,1,0.7,2.4,0.4,4.3c-0.1,0.5-0.4,1.8-1,3.9
			c0.7,0,2-0.5,3.8-1.6l2.9-1.6L342,260.7z"/>
		<path d="M338.8,229.6c0.3,0.1,0.4,0.4,0.3,0.7l-1.7,4.8c-0.1,0.4-0.4,0.5-0.7,0.3l-4.8-1.7c-0.4-0.1-0.5-0.4-0.3-0.9l1.6-4.6
			c0.1-0.4,0.4-0.5,0.8-0.4L338.8,229.6z M355.6,254.7l-1.9,0.9c-2.4,1.1-4.7,0.8-7-0.8c-0.3,2.8-1.7,4.8-4.3,6l-2.4,1.1l-5.1-11.2
			l1.5-0.7c1.8-0.8,2.7-1.9,2.9-3.3c0.1-0.3-0.1-1.4-0.3-3.3c-0.2-1.2,0.2-2,1-2.4s1.5-0.1,2.2,0.9c1.1,1.4,1.8,2.3,2.1,2.5
			c1.1,0.8,2.5,0.8,4.2,0l1.9-0.9L355.6,254.7z"/>
		<path d="M380.3,227.3c1.2,3.7,1.1,7.6-0.3,11.8c-1.8,5.2-5.4,8.7-10.7,10.5c-1.6,0.5-3.4,0.8-5.3,0.9c-2.2,0.1-3.8-0.2-5-0.9
			c-0.6,2.7-1.9,4.3-3.7,4.9l-2.2,0.7l-3.9-11.6l1.9-0.6c1.1-0.4,1.7-1.2,1.9-2.4c0-0.3,0-1.3,0-3.2c0-1.1,0.2-1.8,0.8-2
			c0.7-0.2,1.6,0.5,2.8,2.3c1.2,1.7,2.2,2.5,3,2.2c0.1,0,0.7-1.4,1.7-4c1.2-3.1,2.4-5.6,3.7-7.6c1.9-2.9,4-4.8,6.2-5.5
			s4.1-0.5,5.9,0.6C378.6,224.3,379.7,225.6,380.3,227.3z M374.9,233.4c-0.7-2-2.2-2.6-4.5-1.8c-2.3,0.8-4.6,3.5-7,8.3
			c0.8-0.2,1.6-0.5,2.3-0.7c3.1-1,5.5-2.2,7.3-3.4C374.5,234.7,375.1,233.9,374.9,233.4z"/>
		<path d="M438.2,236.7l-1.7,0.2c-0.6,0.1-1.2-0.3-2.1-1.1c-1.1-1-2.1-1.7-3.2-2.1c-1.8-0.7-4.2-0.8-7.2-0.5
			c-1.7,0.2-3.1,0.5-4.2,1.1c-0.6,0.3-0.9,0.6-0.9,0.8c0,0.4,1.1,0.5,3.1,0.3c3.3-0.4,5.5-0.4,6.8-0.2c2.5,0.4,3.9,1.9,4.2,4.4
			c0.9,7.7-4.9,12.2-17.4,13.6c-7.1,0.8-12.1-0.4-15.1-3.5c-1.7-1.8-2.7-4.5-3.1-8c-0.3-2.4-0.1-5.1,0.6-7.8c0.7-3,1.7-4.5,2.8-4.6
			c1.4-0.2,2.2,0.6,2.4,2.2c0.1,0.6,0.1,1.4,0,2.5s0,1.9,0,2.5c0.6,5.1,5.3,7.1,14.1,6.2c4.7-0.5,8.3-1.2,10.7-2
			c0.9-0.3,1.3-0.6,1.3-0.9s-0.5-0.4-1.5-0.4c-1.6,0.1-3.3,0.2-5,0.4c-2.7,0.3-4.5,0.3-5.6,0.1c-1.8-0.4-2.8-1.4-3-3.2
			c-0.4-3.7,1.9-6.6,7-8.7c3.3-1.4,7.3-2.3,12.1-2.9l3.4-0.4L438.2,236.7z"/>
		<path d="M464.9,223.6c-0.1,3.2-0.6,6.1-1.7,8.7c-1.4,3.7-3.4,5.4-6,5.4c-2.2-0.1-3.9-1.3-5.3-3.7c-1.1,2.3-2.6,3.4-4.5,3.4
			c-2.6-0.1-4.3-1.3-5.2-3.8c-1.2,2.4-2.8,3.6-4.9,3.5l-2.1-0.1l0.3-12.1l2.1,0.1c1.2,0,2.1-0.4,2.7-1.5c0.3-0.9,0.6-1.8,0.9-2.6
			c0.5-1.1,1.1-1.7,1.8-1.7c0.8,0,1.4,0.5,1.6,1.6l0.7,2.9c0.5,1,1.4,1.6,2.8,1.6c1,0,1.8-0.5,2.2-1.5c0.1-0.5,0.4-1.5,0.7-2.8
			c0.3-1,0.9-1.5,1.8-1.5c0.8,0,1.4,0.6,1.6,1.7l0.6,3c0.5,1.1,1.4,1.6,2.8,1.7c1.7,0,2.5-0.5,2.6-1.7c0-0.7-0.1-1.5-0.4-2.2
			c-0.2-0.4-0.4-1.1-0.8-2l3.6-3.7c0.4-0.4,0.7-0.4,0.8,0.1C464.6,218.8,465,221.2,464.9,223.6z M446,208.3c-0.2-0.2-0.2-0.4,0-0.6
			l3.3-3.1c0.2-0.2,0.4-0.2,0.6,0l3,3.1l3.2-3c0.2-0.2,0.4-0.2,0.6,0l3.1,3.2c0.2,0.2,0.2,0.5-0.1,0.7l-3.1,2.9
			c-0.3,0.3-0.5,0.2-0.8,0l-3.1-3.1l0,0l-3,2.9c-0.3,0.2-0.5,0.2-0.8,0L446,208.3z M449.6,202.3c-0.2-0.2-0.2-0.4,0-0.6l3.3-3.1
			c0.2-0.2,0.4-0.2,0.6,0l3.2,3.3c0.2,0.2,0.2,0.5-0.1,0.8l-3,2.9c-0.3,0.3-0.5,0.3-0.8,0L449.6,202.3z"/>
		<path d="M487.7,239c-0.9,6.7-3.4,11.6-7.4,14.8c-0.5,0.4-1,0.5-1.7,0.4l-12.6-1.7c-1.5-0.2-2.1-0.9-2-2.1c0.1-0.7,0.5-1.1,1.1-1.3
			c2.5-0.8,5.7-2.1,9.5-4c4.9-2.4,7.5-4.3,7.7-5.6c0.1-1.1-1.5-3.8-5-8.1l5.5-8.2c0.3-0.5,0.7-0.5,1-0.1c1.9,2.3,3.1,4.5,3.7,6.6
			C488.1,232.1,488.2,235.3,487.7,239z M486.3,213.4c0.2,0.3,0.2,0.5-0.1,0.7l-4.1,3.1c-0.3,0.2-0.5,0.2-0.7-0.1l-3.2-4.1
			c-0.2-0.3-0.2-0.6,0.2-0.9l3.8-2.9c0.3-0.3,0.6-0.2,0.9,0.1L486.3,213.4z"/>
		<path d="M510.4,244.6c-1.6,6.5-4.6,11.2-8.9,14c-0.5,0.3-1.1,0.4-1.8,0.2l-12.3-3c-1.5-0.4-2-1.1-1.7-2.3c0.2-0.6,0.6-1,1.3-1.2
			c2.6-0.5,5.9-1.6,9.8-3.1c5.1-1.9,7.9-3.5,8.2-4.8c0.3-1-1.1-3.9-4.2-8.5l6.3-7.6c0.4-0.4,0.7-0.4,1,0.1c1.7,2.4,2.7,4.8,3,7
			C511.6,237.8,511.3,240.9,510.4,244.6z"/>
		<path d="M533.2,249.4c-3,8.5-6.7,13.8-11,16c-0.5,0.3-1.1,0.3-1.7,0.1l-11.9-4.2c-1.4-0.5-1.9-1.3-1.5-2.5c0.2-0.6,0.7-1,1.4-1.1
			c2.6-0.3,5.7-0.8,9.5-1.7c5.1-1.1,7.9-2.2,8.3-3.2c-3.5-1.2-5.6-2.2-6.5-3c-1.9-1.7-2.3-4.2-1.2-7.4c1-3,2.5-5.6,4.4-7.8
			c2.6-3.1,5.3-4.2,7.9-3.2c3,1,4.4,3.7,4.4,8.1C535.1,242.5,534.5,245.8,533.2,249.4z M529.4,243.1c0.2-0.5,0-1.2-0.6-2
			c-0.6-0.7-1.2-1.2-1.8-1.4c-1.6-0.6-2.6-0.3-3,0.9c-0.2,0.6,0.6,1.3,2.5,2C528.3,243.3,529.3,243.4,529.4,243.1z"/>
		<path d="M578.4,279.7l-1.4-0.8c-0.5-0.3-0.8-1-1-2.1c-0.3-1.4-0.7-2.6-1.3-3.6c-1.1-1.6-2.9-3.2-5.5-4.7c-1.5-0.9-2.8-1.4-4-1.6
			c-0.7-0.1-1.1-0.1-1.2,0.1c-0.2,0.4,0.6,1.1,2.3,2.1c2.9,1.7,4.7,2.9,5.6,3.9c1.8,1.9,2,3.9,0.8,6c-3.9,6.7-11.2,6.9-22.1,0.6
			c-6.2-3.6-9.5-7.5-10.1-11.7c-0.3-2.4,0.5-5.2,2.2-8.3c1.2-2.1,3-4.1,5.2-5.9c2.4-1.9,4-2.6,5-2.1c1.2,0.7,1.4,1.8,0.6,3.2
			c-0.3,0.5-0.8,1.1-1.5,2c-0.7,0.8-1.2,1.5-1.5,2c-2.6,4.4,0,8.9,7.7,13.3c4.1,2.4,7.3,3.9,9.8,4.8c0.9,0.3,1.4,0.3,1.6,0.1
			c0.1-0.2-0.2-0.6-0.9-1.2c-1.3-0.9-2.8-1.8-4.3-2.7c-2.3-1.3-3.8-2.4-4.6-3.2c-1.2-1.4-1.4-2.8-0.5-4.4c1.9-3.2,5.5-4.1,10.8-2.8
			c3.5,0.8,7.3,2.5,11.4,4.9l2.9,1.7L578.4,279.7z"/>
		<path d="M597,295.5l-1.7-1.3c-1.3-1.1-2.4-2.8-3.2-5.1c-0.7-2-1-4-1-6c-4.1,2-8.2,1.3-12.4-2l-3.1-2.5l7.6-9.6l2.2,1.8
			c2,1.6,3.4,2.5,4.5,2.9c0.5,0.2,0.8,0.1,0.9-0.1c0.1-0.2,0.2-0.5,0.2-0.9c-0.1-2.4-0.3-5.6-0.6-9.4l5.2-4.6
			c0.1-0.1,0.2-0.1,0.4-0.2l19.9,7.5c0.2,0.1,0.3,0.1,0.3,0.2s-0.2,0.3-0.4,0.5l-5,5.4c-0.2,0.3-0.4,0.4-0.5,0.4
			c-0.1,0.1-0.4,0-0.6-0.1l-11-4.3l0.3,10.5c0.3,2.2,1.4,4.1,3.2,5.5l2.2,1.8L597,295.5z M619.4,263l-1.8,1.8l-20.5-7.6l2.2-2
			L619.4,263z"/>
		<path d="M607.5,305.9l-1.5-1.4c-1.9-1.8-2.5-4-1.9-6.8c-2.7,0.8-5.1,0.2-7.1-1.7l-1.9-1.8l8.4-8.9l1.2,1.2
			c1.4,1.3,2.8,1.8,4.1,1.5c0.3-0.1,1.3-0.6,3-1.6c1-0.6,1.9-0.6,2.5,0s0.6,1.4,0,2.4c-0.9,1.6-1.4,2.5-1.5,2.9
			c-0.3,1.3,0.2,2.6,1.6,3.9l1.5,1.4L607.5,305.9z M624.4,280.8c0,0.3-0.2,0.5-0.6,0.5l-5.1,0.2c-0.4,0-0.6-0.2-0.6-0.6l-0.2-5.1
			c0-0.4,0.2-0.6,0.7-0.6l4.8-0.2c0.4,0,0.6,0.2,0.7,0.6L624.4,280.8z"/>
		<path d="M631.3,317c-1.4,1.2-3.3,2.1-5.7,2.7c-3,0.7-5.2,0.3-6.6-1.3c-1-1.1-1.8-3.8-2.4-8c-3.5-0.3-5.9-1.3-7.4-2.9l-3.2-3.6
			l9.2-8.2l2.1,2.4c0.2-0.7,0.7-1.4,1.4-2c1.8-1.6,3.5-2,5.3-1.2l-0.3-1.9l8.5-2.8c0.9-0.3,1.6-0.3,1.9,0.1c0.2,0.2,0.4,0.7,0.6,1.7
			c1.2,5.5,1.7,9.9,1.6,13.3C636,310.4,634.3,314.3,631.3,317z M625.8,304.3c0.5-0.4,0.7-1,0.6-1.8c0-0.8-0.3-1.4-0.7-1.9
			c-0.5-0.5-1.1-0.9-1.8-1.2c-0.9-0.3-1.6-0.3-2,0.2c-0.4,0.3-0.5,1-0.3,2.1c0.2,1,0.5,1.7,0.8,2.1c0.4,0.4,0.9,0.7,1.7,0.9
			C624.8,304.8,625.4,304.7,625.8,304.3z M627,313.9c0.9-0.8,1.2-2.8,0.8-5.9c-0.1,0.1-0.3,0.2-0.4,0.4c-1.3,1.2-2.6,1.6-3.9,1.1
			c0,0.6,0.2,1.5,0.4,2.5c0.3,1.2,0.6,2,0.9,2.3C625.3,314.8,626.1,314.7,627,313.9z"/>
		<path d="M638.9,345l-0.9-1.2c-0.4-0.6-0.6-1.3-0.6-2l-1.9,1.4c-1.6,1.2-3.7,2-6.4,2.5c-2.3,0.5-4.3,0.6-5.9,0.4
			c-0.6-0.1-1.1-0.4-1.5-1l-7.4-10.3c-0.9-1.2-0.8-2.2,0.2-2.9c0.5-0.4,1.1-0.4,1.7-0.1c2.3,1.3,5.5,2.6,9.4,4.1
			c5.2,1.9,8.3,2.4,9.3,1.7c0.9-0.6,1.7-3.7,2.4-9.2l9.8-1.7c0.6-0.1,0.8,0.1,0.7,0.7c-0.5,2.4-0.7,4.1-0.7,4.9
			c-0.1,1.9,0.3,3.5,1.2,4.7l0.6,0.8L638.9,345z"/>
		<path d="M660.7,351.4c-9.1,5.3-16.3,3.6-21.5-5.4l-1.7-3l10.6-6.2l1.7,2.9c3,5.1,5,7.9,6.1,8.4c0.4,0.2,0.8,0.2,1.1,0
			c0.4-0.2,0.5-0.6,0.3-1c-0.1-0.1-0.2-0.3-0.3-0.4c-0.5-0.4-1.4-1.5-2.5-3.5c-2.3-4-1.9-6.9,1.3-8.8c2.2-1.3,4.6-2,7.4-2.1
			c3.3-0.2,5.5,0.7,6.6,2.6c1.7,2.9,1.2,6.1-1.4,9.7C666.3,347.3,663.8,349.6,660.7,351.4z M662.8,342.9c0.5-0.3,0.7-0.9,0.7-1.9
			c0-0.9-0.1-1.6-0.4-2.1c-0.3-0.5-0.7-0.9-1.2-1.2c-0.6-0.3-1.1-0.3-1.6,0c-0.6,0.3-0.4,1.4,0.7,3.1
			C661.8,342.3,662.4,343.1,662.8,342.9z M678.2,334.6c-0.1,0.3-0.3,0.5-0.7,0.4l-5-1.3c-0.3-0.1-0.5-0.3-0.4-0.7l1.2-5
			c0.1-0.4,0.4-0.5,0.9-0.4l4.7,1.2c0.4,0.1,0.6,0.4,0.5,0.8L678.2,334.6z"/>
		<path d="M661.5,392.2l-1.1-2.5c-1.5-3.7-0.5-6.8,3-9.5c-2,0-3.1-0.4-3.5-1.3c-0.6-1.5-1-3.5-1-5.9c0-3.1,0.8-5,2.6-5.8
			c1.9-0.8,4.1-0.9,6.6-0.3c0.2,0,2.9,1.3,8,3.9l2-1.4l8.3,3.4c0.3,0.1,0.5,0.3,0.6,0.4c0.1,0.2-0.1,0.4-0.5,0.7l-11.9,7.7
			c-2.2,1.4-2.9,2.8-2.4,4.2l0.7,1.6L661.5,392.2z M668.2,376.9l4.5-3.5c-2.7-1.6-4.4-2.3-5.1-2
			C666.9,371.8,667.1,373.6,668.2,376.9z"/>
		<path d="M669.8,421.6l-0.6-2c-0.5-1.7,0.2-3.7,2-5.9c-2.7-1-4.3-2.2-4.7-3.6c-0.3-0.9-0.1-1.9,0.4-3c0.4-1,1.1-1.8,1.9-2.5
			c-2.8-0.9-4.3-2.1-4.7-3.4c-0.6-2,0.2-3.8,2.2-5.6c-2.8-0.9-4.4-2.3-5-4.1l-0.6-2l11.7-3.3l0.6,2c0.4,1.3,1.1,2.1,2.3,2.3
			c1,0,2,0,3,0c1.3,0.1,2.1,0.6,2.3,1.3c0.2,0.9-0.1,1.6-1.1,2.2c-0.4,0.2-1.3,0.7-2.7,1.5c-0.9,0.7-1.2,1.7-0.9,2.8
			c0.3,1,1,1.6,2.1,1.6c0.6,0,1.6-0.1,3.1-0.1c1.1,0,1.8,0.4,2,1.3c0.2,0.8-0.1,1.5-1.1,2.1c-0.5,0.3-1.4,0.7-2.7,1.4
			c-0.9,0.6-1.2,1.5-1,2.5c0.3,1,1,1.6,2.1,1.7c1-0.1,2-0.1,3-0.2c1.1,0,1.7,0.4,2,1.4c0.2,0.8-0.1,1.5-1.1,2
			c-0.3,0.2-1.2,0.7-2.6,1.5c-0.9,0.7-1.2,1.6-0.9,2.7l0.6,2L669.8,421.6z"/>
		<path d="M687.5,445.6c-3.2,0.5-6.1,0.4-8.9-0.1c-3.8-0.8-6-2.4-6.3-5c-0.3-2.1,0.6-4.1,2.7-5.8c-2.5-0.7-3.8-2-4.1-3.8
			c-0.4-2.6,0.6-4.5,2.8-5.8c-2.6-0.7-4-2.1-4.3-4.2l-0.3-2.1l12-1.8l0.3,2c0.2,1.2,0.8,2,1.9,2.4c0.9,0.1,1.8,0.3,2.8,0.4
			c1.2,0.3,1.9,0.8,2,1.5c0.1,0.8-0.3,1.5-1.3,1.9l-2.7,1.2c-0.9,0.6-1.3,1.7-1.1,3.1c0.2,1,0.8,1.7,1.8,1.9c0.5,0,1.5,0.1,2.9,0.2
			c1.1,0.1,1.6,0.6,1.8,1.5c0.1,0.8-0.3,1.4-1.4,1.8l-2.8,1.1c-1,0.7-1.4,1.7-1.2,3c0.2,1.7,1,2.4,2.2,2.2c0.7-0.1,1.4-0.4,2.1-0.8
			c0.4-0.2,1-0.6,1.8-1.1l4.3,2.9c0.5,0.3,0.5,0.6,0,0.8C692.2,444.4,689.9,445.3,687.5,445.6z"/>
		<path d="M674.1,473l-0.1-2.9c-6-0.2-10.6-1.7-13.6-4.3c-0.4-0.4-0.7-0.9-0.7-1.6l-0.5-12.7c-0.1-1.5,0.5-2.3,1.8-2.3
			c0.7,0,1.2,0.3,1.5,0.9c1.2,2.3,2.9,5,5,8.2c2.9,4.3,5,6.5,6.1,6.5c-0.1-3.6,0-6,0.4-7.2c0.8-2.4,3-3.7,6.5-3.9
			c3.1-0.1,6.1,0.3,8.9,1.2c3.9,1.3,5.8,3.4,5.9,6.2c0.1,3.9-2.8,6.6-9,8.1l0.1,3.2L674.1,473z M683.8,464.2c0.6,0,1.1-0.5,1.6-1.3
			s0.7-1.5,0.7-2.1c-0.1-1.7-0.7-2.5-2-2.4c-0.7,0-1,1.1-0.9,3.1C683.2,463.3,683.5,464.2,683.8,464.2z"/>
		<path d="M681.2,493c-2.4-0.1-4.3-1-5.9-2.6c-1.7-1.7-2.4-3.7-2.3-6c0.2-2.9,1.7-5.3,4.7-6.9c-2.7-1.4-3.9-3.1-3.8-5.2l0.1-1.7
			l12.2,0.8l-0.1,0.9c-0.1,2.3,0.5,3.5,1.9,3.7c1.9,0.2,3.5,0.9,4.9,1.9c2.1,1.6,3,3.8,2.9,6.6c-0.2,3.4-2.2,5.9-5.9,7.4
			C687.3,492.8,684.4,493.2,681.2,493z M683.6,488.9c1.2,0.1,2.4-0.2,3.8-0.7c1.6-0.7,2.5-1.5,2.6-2.5c0-0.5-0.2-1-0.6-1.4
			c-0.4-0.4-0.9-0.6-1.4-0.6c-1.4-0.1-2.7,0.1-4,0.6c-1.7,0.7-2.6,1.6-2.7,2.9C681.2,488.2,682,488.8,683.6,488.9z"/>
	</g>
</g>
<g id="snac">
	<g>
		<g>
			<path d="M348.1,707.6c3.4,2.1,8.4,3.9,13.7,3.9c7.8,0,12.4-4.1,12.4-10.1c0-5.5-3.2-8.7-11.2-11.8c-9.7-3.4-15.7-8.4-15.7-16.8
				c0-9.2,7.7-16.1,19.2-16.1c6.1,0,10.5,1.4,13.1,2.9l-2.1,6.2c-1.9-1.1-5.9-2.8-11.3-2.8c-8.1,0-11.2,4.8-11.2,8.9
				c0,5.5,3.6,8.3,11.8,11.4c10,3.9,15.1,8.7,15.1,17.4c0,9.2-6.8,17.1-20.8,17.1c-5.7,0-12-1.7-15.1-3.8L348.1,707.6z"/>
			<path d="M392.5,717v-59.3h8.4l19,30c4.4,7,7.8,13.2,10.6,19.3l0.2-0.1c-0.7-7.9-0.9-15.1-0.9-24.4v-24.8h7.2V717h-7.7l-18.8-30.1
				c-4.1-6.6-8.1-13.4-11.1-19.8l-0.3,0.1c0.4,7.5,0.6,14.6,0.6,24.5V717H392.5z"/>
			<path d="M460,698.3l-6.2,18.7h-7.9l20.2-59.3h9.2l20.2,59.3h-8.2l-6.3-18.7H460z M479.4,692.3l-5.8-17.1
				c-1.3-3.9-2.2-7.4-3.1-10.8h-0.2c-0.9,3.5-1.8,7.1-3,10.7l-5.8,17.2L479.4,692.3L479.4,692.3z"/>
			<path d="M544.4,715c-2.8,1.4-8.4,2.8-15.7,2.8c-16.7,0-29.3-10.6-29.3-30c0-18.6,12.6-31.2,31-31.2c7.4,0,12.1,1.6,14.1,2.6
				l-1.9,6.4c-2.9-1.4-7-2.5-12-2.5c-13.9,0-23.1,8.9-23.1,24.5c0,14.5,8.4,23.8,22.8,23.8c4.7,0,9.4-1,12.5-2.5L544.4,715z"/>
		</g>
	</g>
</g>
</svg>
