<?xml version="1.0" encoding="utf-8"?>
<!-- Generator: Adobe Illustrator 24.1.1, SVG Export Plug-In . SVG Version: 6.00 Build 0)  -->
<svg version="1.1" id="Capa_1" xmlns="http://www.w3.org/2000/svg" xmlns:xlink="http://www.w3.org/1999/xlink" x="0px" y="0px"
	 viewBox="0 0 512 512" style="enable-background:new 0 0 512 512;" xml:space="preserve">
<style type="text/css">
	.st0{fill:#FFDA1A;}
</style>
<g>
	<path class="st0" d="M311,155.3L171.6,256L311,356.7L311,155.3z"/>
	<path class="st0" d="M0,256c0,141.2,114.8,256,256,256s256-114.8,256-256S397.2,0,256,0S0,114.8,0,256z M137.2,268.2
		c-3.9-2.8-6.2-7.3-6.2-12.2s2.3-9.3,6.2-12.2l180-130c4.6-3.3,10.6-3.8,15.6-1.2c5,2.6,8.2,7.7,8.2,13.4l0,260
		c0,5.6-3.2,10.8-8.2,13.4c-2.2,1.1-4.5,1.6-6.8,1.6c-3.1,0-6.2-1-8.8-2.8L137.2,268.2L137.2,268.2z"/>
</g>
</svg>
