<?xml version="1.0" encoding="utf-8"?>
<!-- Generator: Adobe Illustrator 24.1.1, SVG Export Plug-In . SVG Version: 6.00 Build 0)  -->
<svg version="1.1" id="Layer_1" xmlns="http://www.w3.org/2000/svg" xmlns:xlink="http://www.w3.org/1999/xlink" x="0px" y="0px"
	 viewBox="0 0 1080 1080" style="enable-background:new 0 0 1080 1080;" xml:space="preserve">
<style type="text/css">
	.st0{fill:#367701;}
	.st1{fill:#FFFFFF;}
	.st2{fill:url(#SVGID_1_);}
	.st3{fill:url(#SVGID_2_);}
	.st4{fill:none;stroke:#154691;stroke-miterlimit:10;}
	.st5{fill:url(#SVGID_3_);}
	.st6{enable-background:new    ;}
</style>
<g>
	<g>
		<path class="st0" d="M530.4,7.5c-41.6,47.9-162.1,208-442.3,123.7L17.6,294.7c0,0,198.2,75,95.3,343.2
			c-137,313.4,146.3,325.9,146.3,325.9s184.4,7.3,272.7,105.4v1.3c0.3-0.3,0.3-0.5,0.5-0.5c0.3,0.3,0.3,0.5,0.5,0.5v-1.3
			c88.3-97.8,272.7-105.4,272.7-105.4s283-12.3,146.3-325.9c-102.9-268.2,95.3-343.2,95.3-343.2l-70.5-163.6
			C696.2,215.7,576.1,55.6,534.4,7.5l-1.8-2L530.4,7.5z"/>
	</g>
</g>
<path class="st1" d="M545.4,348.9c0,0-5.8,24.3,29.1,66.5c55.9,53.4,8.3,90.6,8.3,90.6H479.2c0,0-36.6-27.8,3.3-84.8
	c0,0,7.8,33.4,12,32.4c4.3-1-6-38.9,21.3-73c0,0-3.3,34.4,11.3,43.9C524.1,389.8,531.6,366.2,545.4,348.9z"/>
<g>
	
		<linearGradient id="SVGID_1_" gradientUnits="userSpaceOnUse" x1="464.6515" y1="557.2285" x2="600.7188" y2="557.2285" gradientTransform="matrix(1 0 0 -1 0 1080)">
		<stop  offset="0" style="stop-color:#FFFFFF"/>
		<stop  offset="1" style="stop-color:#FFFFFF"/>
	</linearGradient>
	<path class="st2" d="M588.8,534.6H476.2c-6.5,0-11.8-5.3-11.8-11.8c0-6.5,5.3-11.8,11.8-11.8h112.6c6.5,0,11.8,5.3,11.8,11.8
		C600.6,529.3,595.4,534.6,588.8,534.6z"/>
</g>
<g>
	
		<linearGradient id="SVGID_2_" gradientUnits="userSpaceOnUse" x1="485.1651" y1="491.7479" x2="580.5087" y2="491.7479" gradientTransform="matrix(1 0 0 -1 0 1080)">
		<stop  offset="0" style="stop-color:#FFFFFF"/>
		<stop  offset="1" style="stop-color:#FFFFFF"/>
	</linearGradient>
	<path class="st3" d="M569.5,571.9c-2.5,1.5-4.8,3-6.5,4.5c-15.6,13.5-26.3,32.6-30.4,52.7c0.5-2.5-1.8-7.3-2.3-9.5
		c-0.8-2.5-1.3-5-2.3-7.5c-1.8-4.8-3.8-9.3-6.3-13.5c-5-8.5-11.5-16.1-18.8-22.6c-4-3.8-8.8-4.5-13-7.3c-3-2.3-5-5.8-5-9.5
		c0-6.5,5.3-11.8,11.8-11.8h71.8c6.5,0,11.8,5.3,11.8,11.8C580.6,564.7,574.8,568.7,569.5,571.9z"/>
</g>
<path class="st4" d="M531.9,667.3"/>
<linearGradient id="SVGID_3_" gradientUnits="userSpaceOnUse" x1="273.1399" y1="422.9535" x2="792.3358" y2="422.9535" gradientTransform="matrix(1 0 0 -1 0 1080)">
	<stop  offset="0" style="stop-color:#FFFFFF"/>
	<stop  offset="1" style="stop-color:#FFFFFF"/>
</linearGradient>
<path class="st5" d="M791.6,691.9c-2-16.3-8-35.6-24.8-41.9c-14-5.3-29.6,0-40.4,9.5c-10.8,9.5-19.1,24.8-8.5,37.9
	c6.3,7.8,22.8,18.6,33.4,13.5c-55.7,26.3-64-45.2-27.1-70.7c-0.3-4.3-0.8-8.3-1.5-12.3c-7-36.1-38.4-64.5-74.5-69
	c-36.9-4.5-70.7,9.5-92.1,39.9c-12.3,17.6-20.1,37.6-22.1,58.7c0,0.5-0.8,4.5-0.8,4.5s-0.8-3.8-0.8-4c-2-21.3-9.8-41.6-22.1-59.2
	c-21.3-30.6-55.2-44.7-92.1-39.9c-36.1,4.5-67.7,32.6-74.5,69c-0.8,4-1.3,8.3-1.5,12.3c36.9,25.6,28.9,97.1-27.1,70.7
	c10.5,5,26.8-5.8,33.4-13.5c10.5-13,2.3-28.3-8.5-37.9c-10.8-9.5-26.6-14.8-40.4-9.5c-17.1,6.3-22.8,25.3-24.8,41.9
	c-2.8,23.1,1.3,44.9,23.1,57.2c17.6,10,41.1,8,58.7-1c8.3-4.3,14.8-10,20.1-17.6c3-4,5.5-8.5,7.5-13.3c1.3-3,5.3-13.3,3-16.3
	c14.8,19.3,34.4,27.6,58.7,23.1c0,0,17.1,5.5,12.3,24.8c-4.8,19.3,19.1-23.3-1.8-38.4c0,0,15.3-59.7-29.1-50.7
	c0,0,11.3,26.1-17.3,27.1c-21.3,0.8-27.3-26.1-28.1-42.7c-0.8-13.5,5.5-26.6,15.8-35.4c9-7.8,20.8-11.3,32.4-12.8
	c46.2-5,64.5,51.2,60,67c-0.8,3-2.8,5.8-3.8,8.8c-1.5,4.3-3,8.5-4,12.8c-2.5,10.3-3.8,21.1-1.8,31.4c2,11.5,8.3,21.8,17.8,28.6
	c10.8,7.8,23.8,11.8,37.1,11.5c8.5-0.3,17.1-2.3,24.8-6.3c5.8-3,11.3-6.5,15.6-11.3c8.3-8.8,11.8-20.6,12-32.4
	c0.3-10.5-2-21.3-5.5-31.4c-1.5-4.3-3-8.3-5-12.3c-4.5-15.8,13.8-72,60-67c11.8,1.3,23.3,5,32.4,12.8c10.3,8.8,16.6,21.8,15.8,35.4
	c-0.8,16.6-6.8,43.4-28.1,42.7c-28.3-0.8-17.3-27.1-17.3-27.1c-44.2-9-29.1,50.7-29.1,50.7c-20.8,15.1,3.3,57.7-1.8,38.4
	c-4.8-19.3,12.3-24.8,12.3-24.8c24.3,4.5,43.7-3.5,58.7-23.1c-2.3,3,1.8,13.3,3,16.3c1.8,4.8,4.5,9,7.5,13.3
	c5.5,7.5,11.8,13.3,20.1,17.6c17.6,8.8,41.1,10.8,58.7,1C790.3,736.8,794.3,714.9,791.6,691.9z M540.2,727
	c-15.8,3.8-33.4-5.5-33.4-23.3c0-13.3,10.8-24.1,24.1-24.1h3.8c13.3,0,24.1,10.8,24.1,24.1C558.5,714.7,551,724.2,540.2,727z"/>
<g>
	<path class="st1" d="M209,556.9c0.3-0.3,0.3-0.3,0.5-0.3s0.3,0,0.5,0.3l4.5,4.5c0.3,0.3,0.3,0.8,0,1l-4.5,4.5
		c-0.3,0.5-0.8,0.3-1.3,0l-4.3-4.3c-0.3-0.5-0.3-0.8,0-1L209,556.9z M230.6,539.8c8.5,0,14.3,2.5,17.6,7c2.5,3.3,3.5,8,3.5,14.3
		c0,5.5-1.3,9.8-3.5,13c-2.5,3.8-6.5,5.8-11.5,5.5c-3,0-6.3-0.5-9.5-1.5c-4-1.3-6.3-2.8-6.3-4.5c0-1.5,1.3-2.3,3.8-2
		c0.5,0,1.5,0.3,2.8,0.5c1.3,0.3,2.3,0.5,2.8,0.5c4.5,0,7-4.3,7-13c0-9-1.5-13.5-4.8-13.5c-0.8,0-2.3,1-4.8,3
		c-2.3,1.8-3.8,3.3-4.5,4.3l-10.8-5.8c-0.8-0.3-1-0.8-1-0.8c0-0.3,0.3-0.5,1-1.3c1.5-1.3,3.8-2.5,6.8-3.8
		C222.8,540.6,226.8,539.8,230.6,539.8z"/>
	<path class="st1" d="M220.3,521.5c2,0.3,4.5,0.8,7.3,1.8c3,1,5.3,2,7,2.8c1.8,1.3,2.8,2.3,2.5,3c0,1-1.3,1.5-3.8,2
		c-3.5,0.5-15.3,1.3-35.4,1.8l-9.8-11.3c-0.5-0.8-1-1.3-1-1.5c0-0.3,0.3-0.3,1-0.3c4.5-0.5,9.8-0.5,16.1,0
		C206.3,520,211.5,520.5,220.3,521.5z"/>
	<path class="st1" d="M227.3,489.2c10.8,2.3,15.1,8.3,13,18.3c-1.8,8.5-6.3,12-13.5,10.5c-3-0.5-5.5-1.8-7.8-3.3
		c-1-0.8-1.3-1.5-1-2.3c0.3-0.8,1-1.3,2.3-1.3c2.3-0.3,3.5-0.8,4.3-1.5c0.8-1,1.5-3.3,2.3-6.8c0.8-4.3,0.8-6.5-0.3-6.8
		c-0.5,0-1,0.3-2,0.8c-3,1.8-6.5,5.5-10.8,10.8l-10-7.3c-0.5-0.5-0.8-0.8-0.8-1c0-0.3,0.3-0.5,0.5-0.8c1.8-2.3,4.3-4.3,7.5-6
		C216.3,489.2,221.8,488.1,227.3,489.2z"/>
	<path class="st1" d="M249.7,472.8l-1,3.5c-2.5,8-7.8,10.8-16.1,8.3c-3.5-1-8.3-2.3-14.3-3.8c-6.3-1.5-10.3-2.5-12.5-2.8
		c-1-0.3-1.8-0.5-2-1.3l-3.8-11.3c-0.3-0.8-0.3-1.3-0.3-1.5c0-0.3,0.3-0.3,1-0.3l28.3,8.5c3,1,5,0,6-2.8l0.3-1L249.7,472.8z"/>
	<path class="st1" d="M238.1,453.8c5.8,2.3,9.5,4.5,11.5,7c2,3,2.3,7,0.3,12.3l-1,2.5l-14.3-5.3l2.5-7c0.5-1.3,0.3-2-0.3-2.3
		c-0.3,0-0.8,0-1.5,0c-2.3,0.8-4.5,1.8-7,3c-0.5,0.3-0.8,0-1.3-0.5l-6.3-9c-0.3-0.5-0.5-0.8-0.5-1c0-0.3,0.3-0.5,1-0.5
		C226.6,451.3,232.1,451.5,238.1,453.8z M263,465.3c0.5-0.3,0.8-0.3,0.8,0.3l2.8,5.8c0.3,0.5,0,0.8-0.3,1l-5.8,2.8
		c-0.5,0.3-0.8,0-1-0.5l-2.5-5.5c-0.3-0.5,0-0.8,0.5-1L263,465.3z"/>
	<path class="st1" d="M219,407.1c1.5,0.8,2.5,3.3,2.8,7.3c0.3,4.3-0.5,8.3-2,11.8c-0.5,1-1.3,2.3-2.8,4c-1.3,1.8-2.3,3-2.5,4
		c-0.3,0.5,0,1.5,0.8,2.5c0.8,1,1,1.8,0.8,2.3c-0.5,1-1.5,1-3,0.5c-1-0.5-2.3-2-4-4.3c-1.8-2.5-2.5-4.5-2-5.5c-0.3,0.5-0.5,1-0.3,1
		s1.3-1.3,3.3-3.8c2.8-3.8,4.5-6.5,5.3-8c0.5-1.3,1-3.3,1.3-5.8c0.3-2.8,0.5-4.3,0.8-4.8C217.8,407.1,218.3,406.9,219,407.1z
		 M223.8,420.7c3.3,1.5,7.5,3.5,13,6.3c7,3.5,11,5.5,12.5,6.3c1.5,1,3.3,2.3,5.3,4.3c2,2,3.5,3.5,4.5,5c1.3,1.8,1.8,3,1.5,3.8
		c-0.3,0.8-1.8,1-4,0.5c-3.5-0.5-14.8-5-33.6-13.3l-0.5-11.8c0-0.5,0-1,0-1.3C222.6,420.2,223.1,420.2,223.8,420.7z"/>
	<path class="st1" d="M266,373c0.3,0,0.5,0,0.5,0.5l1,5.5c0,0.5,0,0.8-0.5,0.8l-5.3,1l0.8,5c0,0.5,0,0.5-0.5,0.8l-5.5,1
		c-0.5,0-0.8-0.3-0.8-0.8l-1-5c0-0.5,0-0.8,0.5-0.8l5-1l-0.8-5c0-0.5,0.3-0.8,0.5-1L266,373z M305.1,375.3l-1.3,1.8
		c-2.3,3-5.3,4-9.5,3.3c1,7.3-1.5,15.3-7.8,24.1c-3.5,4.8-7,7.5-10.5,8.5c-4,1-8.3-0.3-12.8-3.5c-1.8-1.3-3.5-3-5-4.8
		c-2-2.3-2.5-4-1.8-5c0.8-1.3,2.3-1,4,0c2.5,1.5,4.5,2.3,6,2c3-0.5,6.3-3.3,10-8.3c4-5.5,6.3-10.3,7.3-14.8c0.8-2.8,0.8-5.8,0.3-8.8
		c-0.5-2.3-0.5-3.8-0.3-4c0.8-1,1.8-1,2.8-0.3c0.5,0.3,1,1,1.5,1.8c0.8,1,1,1.8,1.3,2.3c0.8,0,1.5-0.5,2.3-1.5l1.3-1.8L305.1,375.3z
		"/>
	<path class="st1" d="M284.5,335.6c0.5,0,0.8,0.3,0.8,0.8l0.3,6.3c0,0.5-0.3,0.8-0.8,0.8l-6.3,0.3c-0.5,0-0.8-0.3-0.8-0.8l-0.3-6
		c0-0.5,0.3-0.8,0.8-0.8L284.5,335.6z M320.9,360.5l-1.8,2c-1.3,1.3-3,2.3-5,2.8c-1.8,0.5-3.3,0.8-4.5,0.5c-0.3,4.8-1.5,8.5-4,11
		l-1.5,1.8l-11-10.5l3.3-3.5c-1,0-2.3-0.8-4-2.3c-2-2-3.5-4.8-4.3-8.3c-0.8-4-0.3-7.3,2-9.5c1.8-2,4-2.5,6.8-1.8
		c2.3,0.5,4,1.5,5.8,3.3c2.8,2.5,4.3,5,4.5,7.3l3-3.3L320.9,360.5z M300.8,352.2c-0.5-0.5-1.3-0.5-2.5-0.3c-1,0.3-1.8,0.8-2.3,1.3
		c-0.8,0.8-1,1.5-1.3,2.5c-0.3,1.3-0.3,2,0.3,2.5s1.3,0.5,2.5,0.3c1.3-0.3,2-0.8,2.5-1c0.5-0.8,1-1.5,1.3-2.5
		C301.6,353.7,301.6,352.7,300.8,352.2z"/>
	<path class="st1" d="M297.3,321.1c0.5,0,0.8,0.3,0.8,0.8l-0.3,6.3c0,0.5-0.3,0.8-0.8,0.8h-6.3c-0.5,0-0.8-0.3-0.8-1l0.3-6
		c0-0.5,0.3-0.8,0.8-0.8H297.3z M318.9,338.4c4.3,4.5,6.5,8.3,7,11.3c0.5,3.5-1.3,7.3-5.3,11l-2,1.8l-10.3-11l5.5-5.3
		c1-1,1.3-1.5,0.8-2.3c-0.3-0.3-0.8-0.5-1.3-0.5c-2.3-0.3-4.8-0.5-7.8-0.5c-0.5,0-0.8-0.3-0.8-0.8l-1.5-10.8c0-0.5,0-1,0-1
		c0.3-0.3,0.5-0.3,1,0C309.6,331.1,314.6,333.9,318.9,338.4z"/>
	<path class="st1" d="M386.1,311.5l-1.8,1.3c-3,2-6.5,2-10-0.3c-1.5,7.3-6.8,13.8-15.8,19.8c-5,3.3-9.3,4.8-12.8,4.3
		c-4-0.5-7.5-3-10.8-7.8c-1.3-2-2.3-4-3-6.3c-1-2.8-1-4.5,0.3-5.3c1.3-0.8,2.5-0.3,3.8,1.5c1.8,2.3,3.5,3.8,5,4
		c3,0.8,7-0.8,12.3-4.3c5.5-3.8,9.5-7.5,12-11.3c1.5-2.5,2.8-5,3.3-8c0.5-2.3,0.8-3.8,1-4c1-0.8,2-0.3,2.8,0.8
		c0.3,0.5,0.5,1.3,0.8,2.3c0.3,1,0.5,2,0.5,2.5c0.8,0.3,1.5,0,2.5-0.8l1.8-1.3L386.1,311.5z M350.3,295.5c0.3,0,0.5,0.3,0.5,0.8
		l-1,5.5c0,0.5-0.3,0.5-0.8,0.5l-5-1l-1,5c0,0.5-0.3,0.5-0.8,0.5l-5.5-1c-0.5,0-0.5-0.5-0.5-1l1-5c0-0.5,0.5-0.8,0.8-0.5l5,1l1-5
		c0-0.5,0.5-0.8,1-0.5L350.3,295.5z"/>
	<path class="st1" d="M410,301.5l-2.8,1.3c-5.5,2.8-9.8,2.8-12.5,0c-0.3,2.3-0.8,4.3-2,5.8c-1,1.3-2.8,2.5-4.8,3.5l-4.5,2l-6.5-13.8
		l4-2c3-1.5,4.5-2.5,4.8-3c-2.3-1.3-4.3-2-5.8-2.3c-0.3,0-0.5,0-0.8,0h-1.5c-0.5,0-0.8-0.5-1.3-1.3c-1-1.8-0.8-4,0.3-6.8
		c1.3-3,3.5-5.3,6.8-6.8c2.3-1,4.8-1.5,7-1.3c2.8,0.3,4.5,1.5,5.8,3.8c0.8,1.3,0.8,3,0.3,5.3c0,0.5-0.8,2.3-1.5,4.8
		c0.8,0,2.5-0.5,4.8-1.8l3.8-1.8L410,301.5z"/>
	<path class="st1" d="M408.7,262.6c0.5,0.3,0.5,0.5,0.3,1l-2.5,5.8c-0.3,0.5-0.5,0.5-1,0.3l-5.8-2.5c-0.5-0.3-0.5-0.5-0.3-1l2.3-5.5
		c0.3-0.5,0.5-0.5,1-0.5L408.7,262.6z M427.5,295l-2.5,1c-3,1.3-5.8,0.8-8.5-1.5c-0.5,3.5-2.5,5.8-5.8,7l-3,1.3l-5.5-14.3l2-0.8
		c2.3-0.8,3.5-2,4-3.8c0-0.5,0-1.8-0.3-4.3c0-1.5,0.3-2.5,1.5-2.8c1-0.5,2,0,2.8,1.3c1.3,1.8,2,3,2.5,3.3c1.3,1,3,1.3,5.3,0.3l2.5-1
		L427.5,295z"/>
	<path class="st1" d="M459.9,263.1c1.3,4.8,0.8,9.5-1.3,14.6c-2.5,6.3-7.3,10.3-14,12c-2,0.5-4.3,0.8-6.5,0.8c-2.8,0-4.8-0.5-6-1.5
		c-1,3.3-2.8,5.3-5,5.8l-2.8,0.8l-4-14.8l2.5-0.5c1.3-0.3,2.3-1.3,2.5-2.8c0-0.3,0.3-1.8,0.3-4c0-1.5,0.5-2.3,1.3-2.5
		c0.8-0.3,2,0.8,3.3,3c1.3,2.3,2.5,3.3,3.5,3c0.3,0,1-1.8,2.5-4.8c1.8-3.8,3.5-6.8,5-9c2.5-3.5,5.3-5.5,8-6.3s5-0.3,7.3,1.3
		C458.1,259.1,459.4,260.8,459.9,263.1z M452.9,270.1c-0.8-2.5-2.5-3.3-5.5-2.5c-2.8,0.8-6,4-9.3,9.8c1-0.3,2-0.5,3-0.8
		c4-1,7-2.3,9.3-3.8C452.4,271.6,453.1,270.9,452.9,270.1z"/>
	<path class="st1" d="M530.6,279.2h-2c-0.8,0-1.5-0.5-2.5-1.5c-1.3-1.3-2.5-2.3-3.8-2.8c-2.3-1-5.3-1.3-8.8-1.3
		c-2.3,0.3-4,0.5-5.3,1c-0.8,0.3-1.3,0.8-1.3,1c0,0.5,1.3,0.8,3.8,0.8c4-0.3,6.8-0.3,8.5,0.3c3,0.8,4.8,2.8,4.8,5.8
		c0.5,9.5-7,14.8-22.6,15.6c-8.8,0.5-15.1-1.5-18.3-5.5c-2-2.3-3-5.8-3.3-10c-0.3-3,0.3-6.3,1.5-9.8c1.3-3.5,2.5-5.5,3.8-5.5
		c1.8,0,2.8,0.8,2.8,2.8c0,0.8,0,1.8-0.3,3c-0.3,1.3-0.3,2.3-0.3,3c0.3,6.3,6,9.3,16.8,8.8c5.8-0.3,10.3-0.8,13.5-1.8
		c1.3-0.3,1.8-0.8,1.8-1c0-0.3-0.8-0.5-1.8-0.5c-2,0-4,0-6.3,0c-3.3,0.3-5.5,0-7-0.3c-2.3-0.5-3.3-2-3.5-4.3c-0.3-4.5,3-8,9.3-10.3
		c4.3-1.5,9.3-2.3,15.1-2.5l4.3-0.3L530.6,279.2z"/>
	<path class="st1" d="M565,265.1c-0.3,4-1.3,7.5-2.8,10.8c-2,4.3-4.8,6.5-7.8,6c-2.8-0.3-4.8-1.8-6.3-5c-1.5,2.8-3.5,4-5.8,3.8
		c-3.3-0.3-5.3-2-6-5c-1.5,2.8-3.8,4.3-6.3,4l-2.5-0.3l1.3-15.1l2.5,0.3c1.5,0.3,2.8-0.5,3.5-1.5c0.5-1,0.8-2.3,1.3-3.3
		c0.8-1.3,1.5-2,2.3-2c1,0,1.8,0.8,2,2l0.8,3.5c0.5,1.3,1.8,2,3.3,2.3c1.3,0,2.3-0.5,2.8-1.8c0.3-0.8,0.5-1.8,1-3.5
		c0.5-1.3,1.3-1.8,2.3-1.8s1.8,0.8,1.8,2.3l0.5,3.8c0.5,1.3,1.5,2.3,3.3,2.3c2,0.3,3.3-0.5,3.3-2c0-1,0-1.8-0.3-2.8
		c-0.3-0.5-0.5-1.3-0.8-2.5l4.8-4.3c0.5-0.5,0.8-0.5,1,0.3C565,258.8,565.3,262.1,565,265.1z M542.7,244.5c-0.3-0.3-0.3-0.5,0-0.8
		l4.3-3.5c0.3-0.3,0.5-0.3,0.8,0l3.5,4l4.3-3.5c0.3-0.3,0.5-0.3,0.8,0l3.5,4.3c0.3,0.3,0.3,0.8,0,1l-4,3.5c-0.3,0.3-0.8,0.3-1,0
		l-3.5-4l0,0l-4,3.3c-0.3,0.3-0.8,0.3-1,0L542.7,244.5z M547.7,237.5c-0.3-0.3-0.3-0.5,0-0.8l4.3-3.5c0.3-0.3,0.5-0.3,0.8,0l3.8,4.3
		c0.3,0.3,0.3,0.5-0.3,1l-4,3.5c-0.3,0.3-0.8,0.3-1,0L547.7,237.5z"/>
	<path class="st1" d="M591.9,285.7c-1.8,8.3-5,14-10.3,17.8c-0.8,0.5-1.3,0.5-2.3,0.5l-15.3-3c-1.8-0.5-2.5-1.3-2.3-2.8
		c0.3-0.8,0.8-1.3,1.5-1.5c3.3-0.8,7.3-2.3,12-4.3c6.3-2.8,9.5-4.8,9.8-6.3c0.3-1.3-1.5-4.8-5.5-10.3l7.5-9.8c0.5-0.5,0.8-0.5,1.3,0
		c2.3,3,3.5,5.8,4,8.5C592.9,277.2,592.6,281.2,591.9,285.7z M592.1,253.8c0.3,0.3,0.3,0.8-0.3,0.8l-5.3,3.5c-0.3,0.3-0.8,0.3-1-0.3
		l-3.8-5.3c-0.3-0.5-0.3-0.8,0.3-1l5-3.3c0.5-0.3,0.8-0.3,1,0.3L592.1,253.8z"/>
	<path class="st1" d="M619.7,294.5c-2.5,8-6.5,13.5-12,16.6c-0.8,0.3-1.5,0.5-2.3,0.3l-15.1-4.8c-1.8-0.5-2.5-1.5-2-3
		c0.3-0.8,0.8-1.3,1.8-1.3c3.3-0.5,7.3-1.5,12.3-3c6.5-2,10-3.8,10.5-5.3c0.5-1.3-1-5-4.5-10.8l8.3-9c0.5-0.5,1-0.5,1.3,0.3
		c1.8,3.3,3,6,3.3,8.8C621.5,286.2,621,290,619.7,294.5z"/>
	<path class="st1" d="M647.3,302.2c-4.3,10.3-9.3,16.6-14.8,19.1c-0.8,0.3-1.5,0.3-2.3,0l-14.6-6.3c-1.8-0.8-2.3-1.8-1.8-3.3
		c0.3-0.8,1-1.3,1.8-1.3c3.3,0,7-0.5,11.8-1.3c6.3-1,9.8-2,10.5-3.3c-4.3-1.8-6.8-3.3-7.8-4.3c-2.3-2.3-2.5-5.3-1-9.3
		c1.5-3.5,3.5-6.8,6-9.3c3.5-3.5,6.8-4.8,10-3.5c3.5,1.5,5.3,5,4.8,10.3C650.3,293.7,649.3,297.7,647.3,302.2z M643.3,294
		c0.3-0.8,0-1.5-0.5-2.5c-0.8-1-1.3-1.5-2-1.8c-2-0.8-3.3-0.5-3.8,1c-0.3,0.8,0.8,1.8,3,2.8C642,294.2,643,294.5,643.3,294z"/>
	<path class="st1" d="M700.7,342.9l-1.8-1.3c-0.5-0.5-1-1.3-1-2.8c-0.3-1.8-0.8-3.3-1.3-4.5c-1.3-2-3.3-4.3-6.5-6.3
		c-1.8-1.3-3.3-2-4.8-2.3c-0.8-0.3-1.3-0.3-1.5,0c-0.3,0.5,0.5,1.5,2.8,2.8c3.5,2.3,5.5,4,6.5,5.3c2,2.5,2.3,5,0.5,7.5
		c-5.3,8-14.3,7.8-27.3-1c-7.3-4.8-11.3-10-11.5-15.3c-0.3-3,1-6.3,3.5-10c1.8-2.5,4-4.8,6.8-7c3-2.3,5.3-3,6.3-2.3
		c1.5,1,1.8,2.3,0.5,4c-0.5,0.5-1,1.3-2,2.3c-1,1-1.5,1.8-2,2.3c-3.5,5.3-0.8,11,8.5,17.1c4.8,3.3,8.8,5.5,11.8,6.5
		c1,0.5,1.8,0.5,2,0.3c0.3-0.3-0.3-0.8-1-1.5c-1.5-1.3-3.3-2.5-5-3.8c-2.8-1.8-4.5-3.3-5.3-4.3c-1.5-1.8-1.5-3.5-0.3-5.5
		c2.5-3.8,7-4.8,13.5-2.8c4.3,1.3,8.8,3.5,13.8,6.8l3.5,2.3L700.7,342.9z"/>
	<path class="st1" d="M722.6,363.7l-2-1.8c-1.5-1.5-2.8-3.5-3.5-6.5c-0.8-2.5-1-5-0.8-7.5c-5.3,2-10.3,1-15.1-3.5l-3.8-3.3l10-11.3
		l2.8,2.3c2.3,2,4,3.3,5.3,3.8c0.5,0.3,1,0.3,1.3,0c0.3-0.3,0.3-0.5,0.3-1.3c0-3,0-6.8,0-11.8l6.8-5.3c0,0,0.3-0.3,0.5-0.3
		l24.1,10.8c0.3,0,0.5,0.3,0.5,0.3s-0.3,0.3-0.5,0.5l-6.5,6.3c-0.3,0.3-0.5,0.5-0.8,0.5c-0.3,0-0.5,0-0.8,0l-13.3-6.3l-0.3,13
		c0.3,2.8,1.5,5,3.5,7l2.5,2.3L722.6,363.7z M752.7,325.3l-2.3,2l-24.8-11l3-2.3L752.7,325.3z"/>
	<path class="st1" d="M734.9,377.5l-1.8-1.8c-2.3-2.3-2.8-5.3-1.8-8.5c-3.3,0.8-6.3-0.3-8.8-2.8l-2.3-2.5l11-10.3l1.5,1.5
		c1.8,1.8,3.3,2.5,5,2.3c0.5,0,1.8-0.5,3.8-1.8c1.3-0.8,2.3-0.5,3.3,0.3c0.8,0.8,0.8,1.8-0.3,3c-1.3,2-2,3-2,3.5
		c-0.5,1.5,0,3.3,1.8,5l1.8,1.8L734.9,377.5z M757.7,347.9c0,0.5-0.3,0.5-0.8,0.5l-6.3-0.3c-0.5,0-0.8-0.3-0.8-0.8v-6.3
		c0-0.5,0.3-0.8,1-0.8h6c0.5,0,0.8,0.3,0.8,0.8L757.7,347.9z"/>
	<path class="st1" d="M763.2,393.1c-1.8,1.5-4.3,2.3-7.3,3c-3.8,0.8-6.5,0-8-2c-1.3-1.5-2-4.8-2.3-10c-4.3-0.8-7.3-2-9-4.3l-3.8-4.8
		l12-9.5l2.5,3c0.3-1,1-1.8,2-2.5c2.3-1.8,4.5-2.3,6.5-1l-0.3-2.3l10.8-2.8c1.3-0.3,2-0.3,2.3,0.3c0.3,0.3,0.5,1,0.5,2
		c1,6.8,1.5,12.3,1,16.6C769.5,385.3,767.2,389.8,763.2,393.1z M757.4,377c0.5-0.5,1-1.3,1-2.3c0-1-0.3-1.8-0.8-2.5
		c-0.5-0.8-1.3-1.3-2.3-1.5c-1-0.5-2-0.5-2.5,0c-0.5,0.5-0.8,1.3-0.5,2.5c0.3,1.3,0.5,2,0.8,2.8c0.5,0.5,1,1,2,1.3
		C756.2,377.5,756.9,377.3,757.4,377z M758.2,388.8c1.3-1,1.8-3.3,1.5-7.3c-0.3,0.3-0.3,0.3-0.5,0.5c-1.8,1.3-3.5,1.8-5,1
		c0,0.8,0,1.8,0.3,3c0.3,1.5,0.5,2.5,1,2.8C756.2,389.8,756.9,389.8,758.2,388.8z"/>
	<path class="st1" d="M770.5,428.2l-1-1.5c-0.5-0.8-0.8-1.5-0.5-2.5l-2.5,1.5c-2,1.3-4.8,2.3-8,2.8c-2.8,0.5-5.3,0.5-7.3,0
		c-0.8-0.3-1.3-0.5-1.8-1.3l-8.3-13.3c-1-1.5-0.8-2.8,0.5-3.5c0.8-0.5,1.5-0.5,2.3,0c2.8,1.8,6.5,3.8,11.3,5.8
		c6.3,2.8,10,3.5,11.5,2.8c1.3-0.8,2.3-4.5,3.8-11.3l12.3-1.3c0.8,0,1,0.3,0.8,1c-0.8,3-1.3,5-1.3,6c-0.3,2.3,0,4.3,1,5.8l0.8,1
		L770.5,428.2z"/>
	<path class="st1" d="M797.1,437.5c-11.8,6-20.3,3.3-26.1-8.3l-2-3.8l13.5-6.8l2,3.8c3.3,6.5,5.5,10.3,6.8,10.8c0.5,0.3,1,0.3,1.5,0
		c0.5-0.3,0.8-0.8,0.5-1.3c0-0.3-0.3-0.3-0.5-0.5c-0.8-0.5-1.5-2-2.8-4.5c-2.5-5-1.8-8.8,2.3-10.8c2.8-1.5,5.8-2,9.3-2
		c4,0,6.8,1.3,8,3.8c1.8,3.8,1,7.5-2.5,11.8C804.1,433,800.8,435.7,797.1,437.5z M800.1,427.2c0.5-0.3,1-1,1-2.3c0-1,0-2-0.5-2.8
		c-0.3-0.8-0.8-1.3-1.5-1.5c-0.8-0.5-1.3-0.5-2-0.3c-0.8,0.3-0.5,1.8,0.5,3.8C799.1,426.4,799.8,427.4,800.1,427.2z M819.9,418.2
		c0,0.5-0.5,0.5-0.8,0.5l-6-2c-0.5,0-0.5-0.5-0.5-0.8l2-6c0.3-0.5,0.5-0.8,1-0.5l5.8,1.8c0.5,0.3,0.8,0.5,0.5,1L819.9,418.2z"/>
	<path class="st1" d="M794.8,488.1l-1-3.3c-1.5-4.8,0-8.5,4.5-11.5c-2.5-0.3-3.8-0.8-4.3-1.8c-0.8-2-1-4.3-0.8-7.3
		c0.3-4,1.5-6.3,3.5-7c2.5-0.8,5-0.8,8.3,0c0.3,0,3.5,1.8,9.5,5.5l2.5-1.5l10,4.8c0.5,0.3,0.8,0.5,0.8,0.5c0,0.3-0.3,0.5-0.8,0.8
		l-15.3,8.5c-2.8,1.5-3.8,3.3-3.3,5l0.8,2L794.8,488.1z M804.4,469.8l5.8-4c-3.3-2.3-5.3-3-6-2.8
		C803.1,463.3,803.1,465.6,804.4,469.8z"/>
	<path class="st1" d="M802.9,525.5l-0.5-2.5c-0.5-2.3,0.5-4.5,3-7c-3.3-1.5-5-3-5.5-4.8c-0.3-1.3,0-2.3,0.8-3.8
		c0.5-1.3,1.5-2.3,2.5-3c-3.3-1.3-5.3-2.8-5.5-4.5c-0.5-2.5,0.5-4.8,3-6.8c-3.3-1.3-5.3-3.3-5.8-5.5l-0.5-2.5l14.8-3.3l0.5,2.5
		c0.3,1.8,1.3,2.8,2.8,3c1.3,0,2.5,0.3,3.8,0.3c1.5,0.3,2.5,0.8,2.8,1.8c0.3,1-0.3,2-1.5,2.5c-0.5,0.3-1.8,0.8-3.5,1.8
		c-1.3,0.8-1.8,2-1.3,3.5c0.3,1.3,1,2,2.5,2.3c0.8,0,2,0,3.8,0.3c1.3,0,2.3,0.8,2.5,1.8c0.3,1-0.3,2-1.5,2.5
		c-0.8,0.3-1.8,0.8-3.5,1.5c-1.3,0.8-1.8,1.8-1.5,3c0.3,1.3,1,2,2.5,2.3c1.3,0,2.5,0,3.8,0c1.3,0,2,0.8,2.3,1.8
		c0.3,1-0.3,1.8-1.5,2.5c-0.5,0.3-1.5,0.8-3.3,1.8c-1.3,0.8-1.5,2-1.3,3.3l0.5,2.5L802.9,525.5z"/>
	<path class="st1" d="M822.9,556.1c-4,0.3-7.5,0-11-0.8c-4.8-1.3-7.3-3.5-7.5-6.5c-0.3-2.8,1-5,3.8-7c-3-1-4.5-2.8-4.8-5
		c-0.3-3.3,1-5.5,4-6.8c-3-1-4.8-3-5-5.5l-0.3-2.5l15.1-1.3l0.3,2.5c0.3,1.5,0.8,2.5,2.3,3c1.3,0.3,2.3,0.5,3.3,0.8
		c1.5,0.5,2.3,1,2.3,2c0,1-0.5,1.8-1.8,2.3l-3.5,1.3c-1.3,0.8-1.8,2-1.5,3.8c0,1.3,0.8,2,2,2.5c0.8,0,1.8,0.3,3.5,0.5
		c1.3,0.3,2,1,2,2c0,1-0.5,1.8-1.8,2.3l-3.5,1.3c-1.3,0.8-1.8,2-1.8,3.8c0.3,2,1,3,2.5,2.8c1,0,1.8-0.3,2.8-0.8
		c0.5-0.3,1.3-0.8,2.3-1.3l5,3.8c0.5,0.5,0.5,0.8,0,1C828.9,555.1,825.9,555.9,822.9,556.1z"/>
	<path class="st1" d="M804.4,589v-3.5c-7.5-0.8-13-2.8-16.6-6.3c-0.5-0.5-0.8-1.3-0.8-2l0.5-15.8c0-1.8,0.8-2.8,2.3-2.8
		c0.8,0,1.5,0.5,1.8,1.3c1.3,3,3.3,6.5,5.5,10.5c3.3,5.5,5.5,8.3,7,8.5c0-4.5,0.5-7.5,1-8.8c1.3-3,4-4.3,8.3-4.3c4,0,7.5,0.8,11,2.3
		c4.8,2,7,4.5,6.8,8c0,4.8-4,8-11.8,9.3v4L804.4,589z M817.2,578.7c0.8,0,1.5-0.5,2-1.5c0.5-1,1-1.8,1-2.5c0-2-0.8-3-2.3-3.3
		c-0.8,0-1.3,1.3-1.3,3.8C816.4,577.7,816.7,578.7,817.2,578.7z"/>
	<path class="st1" d="M811.6,614.1c-3-0.3-5.3-1.5-7-3.8c-2-2.3-2.8-4.8-2.3-7.5c0.5-3.8,2.5-6.3,6.3-8.3c-3.3-2-4.5-4.3-4.3-6.8
		l0.3-2l15.1,1.8l-0.3,1c-0.3,2.8,0.3,4.3,2,4.8c2.3,0.5,4.3,1.3,6,2.8c2.5,2,3.5,5,3,8.3c-0.5,4.3-3,7-7.8,8.8
		C819.2,614.3,815.6,614.6,811.6,614.1z M814.9,609.3c1.5,0.3,3,0,4.8-0.5c2-0.8,3.3-1.8,3.3-3c0-0.8,0-1.3-0.5-1.8
		c-0.5-0.5-1-0.8-1.8-1c-1.8-0.3-3.3,0-5,0.5c-2.3,0.8-3.3,1.8-3.5,3.5C812.1,608.3,812.9,609.1,814.9,609.3z"/>
</g>
<g>
	<g class="st6">
		<path class="st1" d="M410.8,861.9c4.3,2.6,10.5,4.8,17,4.8c9.7,0,15.4-5.1,15.4-12.5c0-6.9-3.9-10.8-13.8-14.6
			c-12-4.3-19.4-10.5-19.4-20.8c0-11.4,9.5-19.9,23.8-19.9c7.5,0,13,1.7,16.2,3.6l-2.6,7.7c-2.4-1.3-7.3-3.5-14-3.5
			c-10,0-13.8,6-13.8,11c0,6.9,4.5,10.2,14.6,14.2c12.4,4.8,18.7,10.8,18.7,21.6c0,11.3-8.4,21.1-25.7,21.1
			c-7.1,0-14.8-2.1-18.8-4.7L410.8,861.9z"/>
		<path class="st1" d="M465.9,873.5V800h10.4l23.5,37.2c5.5,8.6,9.7,16.4,13.2,23.9l0.2-0.1c-0.9-9.8-1.1-18.7-1.1-30.2V800h8.9
			v73.5h-9.6l-23.3-37.3c-5.1-8.2-10-16.6-13.7-24.5l-0.3,0.1c0.5,9.3,0.8,18.1,0.8,30.3v31.4H465.9z"/>
		<path class="st1" d="M549.5,850.4l-7.6,23.1H532l25-73.5h11.4l25.1,73.5h-10.1l-7.8-23.1H549.5z M573.6,842.9l-7.2-21.1
			c-1.6-4.8-2.7-9.2-3.8-13.4h-0.2c-1.1,4.4-2.3,8.8-3.7,13.3l-7.2,21.3H573.6z"/>
		<path class="st1" d="M655.7,871.1c-3.5,1.7-10.5,3.5-19.4,3.5c-20.7,0-36.3-13.1-36.3-37.2c0-23,15.6-38.6,38.4-38.6
			c9.2,0,14.9,2,17.4,3.3l-2.3,7.7c-3.6-1.7-8.7-3.1-14.8-3.1c-17.2,0-28.7,11-28.7,30.3c0,18,10.4,29.5,28.2,29.5
			c5.8,0,11.7-1.2,15.5-3.1L655.7,871.1z"/>
	</g>
</g>
</svg>
